<svg xmlns="http://www.w3.org/2000/svg" viewBox="0 0 100 100" fill="none">
  <circle cx="50" cy="50" r="48" fill="#18181b" stroke="#3f3f46" stroke-width="2" />
  <g id="threads-scribble">
    <line x1="66.95" y1="23.85" x2="35.46" y2="85.69" stroke="#fafaf9" stroke-width="1.81" opacity="0.86" stroke-linecap="round" />
    <line x1="50.69" y1="13.24" x2="47.46" y2="81.00" stroke="#fafaf9" stroke-width="0.92" opacity="0.85" stroke-linecap="round" />
    <line x1="30.04" y1="82.20" x2="80.82" y2="28.54" stroke="#fafaf9" stroke-width="1.52" opacity="0.89" stroke-linecap="round" />
    <line x1="75.65" y1="75.29" x2="50.87" y2="12.21" stroke="#fafaf9" stroke-width="1.18" opacity="0.92" stroke-linecap="round" />
    <line x1="76.33" y1="68.38" x2="17.38" y2="63.59" stroke="#fafaf9" stroke-width="1.18" opacity="0.81" stroke-linecap="round" />
    <line x1="22.54" y1="33.80" x2="75.26" y2="21.34" stroke="#fafaf9" stroke-width="1.62" opacity="0.91" stroke-linecap="round" />
    <line x1="14.81" y1="34.61" x2="75.29" y2="21.73" stroke="#fafaf9" stroke-width="0.89" opacity="0.67" stroke-linecap="round" />
    <line x1="80.88" y1="47.82" x2="15.41" y2="46.40" stroke="#fafaf9" stroke-width="1.15" opacity="0.70" stroke-linecap="round" />
    <line x1="76.06" y1="64.20" x2="12.86" y2="39.06" stroke="#fafaf9" stroke-width="1.85" opacity="0.74" stroke-linecap="round" />
    <line x1="86.09" y1="49.94" x2="41.37" y2="11.16" stroke="#fafaf9" stroke-width="1.69" opacity="0.91" stroke-linecap="round" />
    <line x1="20.79" y1="24.84" x2="35.68" y2="74.90" stroke="#fafaf9" stroke-width="1.96" opacity="0.93" stroke-linecap="round" />
    <line x1="22.46" y1="69.06" x2="79.91" y2="40.12" stroke="#fafaf9" stroke-width="1.95" opacity="0.77" stroke-linecap="round" />
    <line x1="69.06" y1="16.62" x2="40.44" y2="88.64" stroke="#fafaf9" stroke-width="1.93" opacity="0.98" stroke-linecap="round" />
    <line x1="20.28" y1="42.78" x2="76.69" y2="23.27" stroke="#fafaf9" stroke-width="1.91" opacity="0.95" stroke-linecap="round" />
    <line x1="59.22" y1="17.42" x2="20.76" y2="46.75" stroke="#fafaf9" stroke-width="1.72" opacity="0.92" stroke-linecap="round" />
    <line x1="16.91" y1="39.54" x2="73.31" y2="68.77" stroke="#fafaf9" stroke-width="1.78" opacity="0.88" stroke-linecap="round" />
    <line x1="71.99" y1="81.36" x2="18.57" y2="41.22" stroke="#fafaf9" stroke-width="1.59" opacity="0.96" stroke-linecap="round" />
    <line x1="21.71" y1="30.84" x2="85.30" y2="48.31" stroke="#fafaf9" stroke-width="1.78" opacity="0.97" stroke-linecap="round" />
    <line x1="41.70" y1="20.10" x2="34.60" y2="77.98" stroke="#fafaf9" stroke-width="1.60" opacity="0.71" stroke-linecap="round" />
    <line x1="18.76" y1="72.90" x2="53.34" y2="10.93" stroke="#fafaf9" stroke-width="0.76" opacity="0.65" stroke-linecap="round" />
    <line x1="19.57" y1="30.79" x2="82.43" y2="27.49" stroke="#fafaf9" stroke-width="1.87" opacity="0.65" stroke-linecap="round" />
    <line x1="73.53" y1="70.51" x2="33.81" y2="22.99" stroke="#fafaf9" stroke-width="1.35" opacity="0.87" stroke-linecap="round" />
    <line x1="18.32" y1="29.06" x2="79.63" y2="38.23" stroke="#fafaf9" stroke-width="0.96" opacity="0.89" stroke-linecap="round" />
    <line x1="84.54" y1="46.91" x2="29.75" y2="26.75" stroke="#fafaf9" stroke-width="1.61" opacity="0.90" stroke-linecap="round" />
    <line x1="20.08" y1="62.21" x2="72.67" y2="26.66" stroke="#fafaf9" stroke-width="1.00" opacity="0.82" stroke-linecap="round" />
    <line x1="88.95" y1="49.87" x2="13.53" y2="49.87" stroke="#fafaf9" stroke-width="1.70" opacity="0.94" stroke-linecap="round" />
    <line x1="75.73" y1="24.70" x2="22.82" y2="35.73" stroke="#fafaf9" stroke-width="1.37" opacity="0.66" stroke-linecap="round" />
    <line x1="76.54" y1="67.35" x2="22.72" y2="66.01" stroke="#fafaf9" stroke-width="0.73" opacity="0.71" stroke-linecap="round" />
    <line x1="39.07" y1="17.83" x2="46.48" y2="79.25" stroke="#fafaf9" stroke-width="1.29" opacity="0.93" stroke-linecap="round" />
    <line x1="85.23" y1="59.65" x2="17.34" y2="67.04" stroke="#fafaf9" stroke-width="0.94" opacity="0.68" stroke-linecap="round" />
    <line x1="85.49" y1="50.38" x2="31.96" y2="79.00" stroke="#fafaf9" stroke-width="0.77" opacity="0.67" stroke-linecap="round" />
    <line x1="11.58" y1="58.94" x2="64.25" y2="80.84" stroke="#fafaf9" stroke-width="0.71" opacity="0.98" stroke-linecap="round" />
    <line x1="50.39" y1="16.82" x2="34.17" y2="84.93" stroke="#fafaf9" stroke-width="1.52" opacity="0.85" stroke-linecap="round" />
    <line x1="89.70" y1="46.67" x2="33.24" y2="81.28" stroke="#fafaf9" stroke-width="1.75" opacity="0.76" stroke-linecap="round" />
    <line x1="30.32" y1="29.14" x2="64.43" y2="78.86" stroke="#fafaf9" stroke-width="0.79" opacity="0.83" stroke-linecap="round" />
    <line x1="22.22" y1="28.98" x2="63.52" y2="85.24" stroke="#fafaf9" stroke-width="0.81" opacity="0.76" stroke-linecap="round" />
    <line x1="25.38" y1="65.82" x2="84.18" y2="31.50" stroke="#fafaf9" stroke-width="0.92" opacity="0.84" stroke-linecap="round" />
    <line x1="17.32" y1="29.05" x2="41.04" y2="82.48" stroke="#fafaf9" stroke-width="1.69" opacity="0.89" stroke-linecap="round" />
    <line x1="40.18" y1="22.00" x2="39.17" y2="78.76" stroke="#fafaf9" stroke-width="1.08" opacity="0.76" stroke-linecap="round" />
    <line x1="29.60" y1="29.92" x2="74.96" y2="35.62" stroke="#fafaf9" stroke-width="0.82" opacity="0.67" stroke-linecap="round" />
    <line x1="77.02" y1="23.41" x2="39.09" y2="78.96" stroke="#fafaf9" stroke-width="0.78" opacity="0.73" stroke-linecap="round" />
    <line x1="70.78" y1="27.30" x2="22.09" y2="72.28" stroke="#fafaf9" stroke-width="1.75" opacity="0.90" stroke-linecap="round" />
    <line x1="82.35" y1="53.30" x2="34.45" y2="19.57" stroke="#fafaf9" stroke-width="1.29" opacity="0.82" stroke-linecap="round" />
    <line x1="79.09" y1="45.51" x2="23.28" y2="69.73" stroke="#fafaf9" stroke-width="1.40" opacity="0.89" stroke-linecap="round" />
    <line x1="78.07" y1="57.28" x2="17.78" y2="29.89" stroke="#fafaf9" stroke-width="1.83" opacity="0.88" stroke-linecap="round" />
    <line x1="16.29" y1="52.98" x2="80.54" y2="42.84" stroke="#fafaf9" stroke-width="1.43" opacity="0.76" stroke-linecap="round" />
    <line x1="19.61" y1="55.60" x2="71.08" y2="78.03" stroke="#fafaf9" stroke-width="1.94" opacity="0.86" stroke-linecap="round" />
    <line x1="82.77" y1="65.83" x2="27.45" y2="67.97" stroke="#fafaf9" stroke-width="1.00" opacity="1.00" stroke-linecap="round" />
    <line x1="82.40" y1="71.13" x2="51.01" y2="11.10" stroke="#fafaf9" stroke-width="0.93" opacity="0.67" stroke-linecap="round" />
    <line x1="20.14" y1="55.47" x2="74.96" y2="30.77" stroke="#fafaf9" stroke-width="1.00" opacity="0.83" stroke-linecap="round" />
    <line x1="27.71" y1="71.49" x2="80.15" y2="47.92" stroke="#fafaf9" stroke-width="1.28" opacity="0.79" stroke-linecap="round" />
    <line x1="20.58" y1="64.45" x2="87.75" y2="37.52" stroke="#fafaf9" stroke-width="1.39" opacity="0.89" stroke-linecap="round" />
    <line x1="71.16" y1="18.50" x2="13.62" y2="61.13" stroke="#fafaf9" stroke-width="1.18" opacity="0.83" stroke-linecap="round" />
    <line x1="60.13" y1="16.85" x2="52.21" y2="81.67" stroke="#fafaf9" stroke-width="1.72" opacity="0.84" stroke-linecap="round" />
    <line x1="17.38" y1="46.50" x2="78.70" y2="42.98" stroke="#fafaf9" stroke-width="0.84" opacity="0.86" stroke-linecap="round" />
    <line x1="68.61" y1="73.03" x2="24.25" y2="26.71" stroke="#fafaf9" stroke-width="1.90" opacity="0.78" stroke-linecap="round" />
    <line x1="10.10" y1="49.87" x2="67.19" y2="75.54" stroke="#fafaf9" stroke-width="1.43" opacity="0.92" stroke-linecap="round" />
    <line x1="59.40" y1="80.60" x2="59.15" y2="15.87" stroke="#fafaf9" stroke-width="1.81" opacity="0.93" stroke-linecap="round" />
    <line x1="14.50" y1="58.45" x2="81.33" y2="34.72" stroke="#fafaf9" stroke-width="1.00" opacity="0.90" stroke-linecap="round" />
    <line x1="86.93" y1="56.75" x2="13.30" y2="48.73" stroke="#fafaf9" stroke-width="1.80" opacity="0.96" stroke-linecap="round" />
    <line x1="18.57" y1="69.63" x2="77.31" y2="33.17" stroke="#fafaf9" stroke-width="1.40" opacity="0.84" stroke-linecap="round" />
    <line x1="27.96" y1="78.41" x2="81.70" y2="53.56" stroke="#fafaf9" stroke-width="0.75" opacity="0.67" stroke-linecap="round" />
    <line x1="69.84" y1="78.00" x2="18.78" y2="64.87" stroke="#fafaf9" stroke-width="0.82" opacity="0.77" stroke-linecap="round" />
    <line x1="79.97" y1="51.18" x2="40.06" y2="12.14" stroke="#fafaf9" stroke-width="1.21" opacity="0.78" stroke-linecap="round" />
    <line x1="46.48" y1="80.81" x2="40.88" y2="11.27" stroke="#fafaf9" stroke-width="1.00" opacity="0.68" stroke-linecap="round" />
    <line x1="78.64" y1="41.87" x2="26.69" y2="73.96" stroke="#fafaf9" stroke-width="1.13" opacity="0.90" stroke-linecap="round" />
    <line x1="29.97" y1="21.85" x2="41.76" y2="78.18" stroke="#fafaf9" stroke-width="1.57" opacity="0.86" stroke-linecap="round" />
    <line x1="19.22" y1="33.03" x2="66.64" y2="75.27" stroke="#fafaf9" stroke-width="1.19" opacity="0.70" stroke-linecap="round" />
    <line x1="10.93" y1="45.99" x2="76.35" y2="72.48" stroke="#fafaf9" stroke-width="1.10" opacity="0.77" stroke-linecap="round" />
    <line x1="82.64" y1="69.97" x2="24.51" y2="68.30" stroke="#fafaf9" stroke-width="1.06" opacity="0.73" stroke-linecap="round" />
    <line x1="74.86" y1="67.72" x2="14.57" y2="47.65" stroke="#fafaf9" stroke-width="0.72" opacity="0.75" stroke-linecap="round" />
    <line x1="32.04" y1="23.22" x2="34.20" y2="75.03" stroke="#fafaf9" stroke-width="1.02" opacity="0.77" stroke-linecap="round" />
    <line x1="74.80" y1="74.63" x2="13.64" y2="46.64" stroke="#fafaf9" stroke-width="1.17" opacity="0.78" stroke-linecap="round" />
    <line x1="42.06" y1="85.64" x2="22.78" y2="32.42" stroke="#fafaf9" stroke-width="0.72" opacity="0.83" stroke-linecap="round" />
    <line x1="22.57" y1="60.91" x2="74.14" y2="30.72" stroke="#fafaf9" stroke-width="1.85" opacity="0.80" stroke-linecap="round" />
    <line x1="24.71" y1="26.86" x2="41.10" y2="87.20" stroke="#fafaf9" stroke-width="1.44" opacity="0.83" stroke-linecap="round" />
    <line x1="19.48" y1="66.71" x2="77.70" y2="36.54" stroke="#fafaf9" stroke-width="1.02" opacity="0.76" stroke-linecap="round" />
    <line x1="26.48" y1="68.53" x2="75.42" y2="27.38" stroke="#fafaf9" stroke-width="1.32" opacity="0.78" stroke-linecap="round" />
    <line x1="80.21" y1="72.14" x2="51.44" y2="11.94" stroke="#fafaf9" stroke-width="1.73" opacity="0.98" stroke-linecap="round" />
    <line x1="55.18" y1="89.36" x2="62.22" y2="22.57" stroke="#fafaf9" stroke-width="1.66" opacity="1.00" stroke-linecap="round" />
    <line x1="65.95" y1="80.73" x2="15.18" y2="42.70" stroke="#fafaf9" stroke-width="1.27" opacity="0.76" stroke-linecap="round" />
    <line x1="21.39" y1="55.52" x2="77.64" y2="60.96" stroke="#fafaf9" stroke-width="1.25" opacity="0.85" stroke-linecap="round" />
    <line x1="35.13" y1="79.94" x2="44.31" y2="16.49" stroke="#fafaf9" stroke-width="1.42" opacity="0.66" stroke-linecap="round" />
    <line x1="54.43" y1="88.97" x2="72.87" y2="20.53" stroke="#fafaf9" stroke-width="1.31" opacity="0.81" stroke-linecap="round" />
    <line x1="26.18" y1="79.09" x2="40.07" y2="20.08" stroke="#fafaf9" stroke-width="0.96" opacity="0.98" stroke-linecap="round" />
    <line x1="81.09" y1="41.12" x2="36.07" y2="82.19" stroke="#fafaf9" stroke-width="1.72" opacity="0.73" stroke-linecap="round" />
    <line x1="42.96" y1="20.81" x2="28.46" y2="68.68" stroke="#fafaf9" stroke-width="1.73" opacity="0.92" stroke-linecap="round" />
    <line x1="16.54" y1="41.74" x2="80.97" y2="28.23" stroke="#fafaf9" stroke-width="0.78" opacity="0.79" stroke-linecap="round" />
    <line x1="82.21" y1="29.03" x2="15.53" y2="42.67" stroke="#fafaf9" stroke-width="1.32" opacity="0.91" stroke-linecap="round" />
    <line x1="23.62" y1="21.82" x2="50.78" y2="85.93" stroke="#fafaf9" stroke-width="1.70" opacity="0.99" stroke-linecap="round" />
    <line x1="39.62" y1="12.00" x2="75.72" y2="68.04" stroke="#fafaf9" stroke-width="1.76" opacity="0.68" stroke-linecap="round" />
    <line x1="69.96" y1="26.38" x2="15.96" y2="35.74" stroke="#fafaf9" stroke-width="1.27" opacity="0.84" stroke-linecap="round" />
    <line x1="33.23" y1="81.65" x2="76.19" y2="36.77" stroke="#fafaf9" stroke-width="1.57" opacity="0.80" stroke-linecap="round" />
    <line x1="33.92" y1="24.63" x2="89.28" y2="45.43" stroke="#fafaf9" stroke-width="1.89" opacity="0.72" stroke-linecap="round" />
    <line x1="21.97" y1="44.26" x2="74.72" y2="29.00" stroke="#fafaf9" stroke-width="1.19" opacity="0.73" stroke-linecap="round" />
    <line x1="63.52" y1="22.70" x2="39.32" y2="85.58" stroke="#fafaf9" stroke-width="0.96" opacity="0.69" stroke-linecap="round" />
    <line x1="32.68" y1="17.04" x2="80.97" y2="72.50" stroke="#fafaf9" stroke-width="1.45" opacity="0.83" stroke-linecap="round" />
    <line x1="24.58" y1="36.94" x2="85.51" y2="48.48" stroke="#fafaf9" stroke-width="1.67" opacity="0.97" stroke-linecap="round" />
    <line x1="87.12" y1="46.34" x2="14.19" y2="56.30" stroke="#fafaf9" stroke-width="1.79" opacity="0.67" stroke-linecap="round" />
    <line x1="48.72" y1="84.62" x2="30.25" y2="16.94" stroke="#fafaf9" stroke-width="1.45" opacity="0.65" stroke-linecap="round" />
    <line x1="81.44" y1="60.68" x2="15.49" y2="51.68" stroke="#fafaf9" stroke-width="0.84" opacity="0.71" stroke-linecap="round" />
    <line x1="19.56" y1="45.39" x2="78.92" y2="33.37" stroke="#fafaf9" stroke-width="0.97" opacity="0.81" stroke-linecap="round" />
    <line x1="37.04" y1="14.63" x2="77.92" y2="74.58" stroke="#fafaf9" stroke-width="1.07" opacity="0.75" stroke-linecap="round" />
    <line x1="16.86" y1="62.15" x2="69.52" y2="16.79" stroke="#fafaf9" stroke-width="1.85" opacity="0.96" stroke-linecap="round" />
    <line x1="22.57" y1="75.88" x2="84.61" y2="51.69" stroke="#fafaf9" stroke-width="1.35" opacity="0.71" stroke-linecap="round" />
    <line x1="26.15" y1="27.12" x2="53.62" y2="88.38" stroke="#fafaf9" stroke-width="1.00" opacity="0.91" stroke-linecap="round" />
    <line x1="48.81" y1="80.74" x2="19.27" y2="35.61" stroke="#fafaf9" stroke-width="1.81" opacity="0.82" stroke-linecap="round" />
    <line x1="61.31" y1="18.61" x2="18.02" y2="45.08" stroke="#fafaf9" stroke-width="0.76" opacity="0.84" stroke-linecap="round" />
    <line x1="33.72" y1="14.59" x2="60.62" y2="77.84" stroke="#fafaf9" stroke-width="1.72" opacity="0.84" stroke-linecap="round" />
    <line x1="61.69" y1="81.50" x2="42.36" y2="21.56" stroke="#fafaf9" stroke-width="1.97" opacity="0.79" stroke-linecap="round" />
    <line x1="38.95" y1="83.25" x2="52.20" y2="11.04" stroke="#fafaf9" stroke-width="0.98" opacity="0.79" stroke-linecap="round" />
    <line x1="81.38" y1="55.78" x2="43.86" y2="17.01" stroke="#fafaf9" stroke-width="1.24" opacity="0.87" stroke-linecap="round" />
    <line x1="54.69" y1="84.85" x2="81.95" y2="32.74" stroke="#fafaf9" stroke-width="0.71" opacity="0.76" stroke-linecap="round" />
    <line x1="44.68" y1="83.74" x2="24.87" y2="22.25" stroke="#fafaf9" stroke-width="0.97" opacity="0.67" stroke-linecap="round" />
    <line x1="42.73" y1="81.75" x2="65.27" y2="13.30" stroke="#fafaf9" stroke-width="1.67" opacity="0.76" stroke-linecap="round" />
  </g>
</svg>